<svg xmlns="http://www.w3.org/2000/svg" width="150" height="40" viewBox="0 0 150 40"><defs><style>.a{fill:#0b9f9c;}.b{fill:#fff;}</style></defs><title>logo</title><path class="a" d="M10.737,10.2H8.629L7.042,7.585l11.178,0A6.386,6.386,0,0,1,24.944,14.3a6.459,6.459,0,0,1-6.72,6.816H13.782l0,7.94H10.742Zm7,8.3a3.836,3.836,0,0,0,4.075-4.2A3.757,3.757,0,0,0,17.764,10.2H13.778l0,8.305h3.955Z"/><path class="a" d="M28.868,16.864A0.6,0.6,0,0,0,28.2,16.2H26.952V13.67H29.84a1.668,1.668,0,0,1,1.948,1.946l0,10.252a0.6,0.6,0,0,0,.669.669h1.247l1.368,2.524H30.819a1.668,1.668,0,0,1-1.948-1.946Zm0.058-9.279h2.647v3.073H28.927V7.586Z"/><path class="a" d="M42.376,13.3c3.833,0,4.928,2.4,4.928,2.4h0.061V15.216a1.459,1.459,0,0,1,1.7-1.552h4.278l-1.419,2.526H50.712a0.593,0.593,0,0,0-.669.609l0,11.621c0,5.08-3.861,7.028-7.755,7.029a12.1,12.1,0,0,1-5.263-1.276l1-2.373a9.7,9.7,0,0,0,4.2,1.033c2.677,0,4.868-1.188,4.867-4.29V27.506a8.971,8.971,0,0,1,.061-0.973H47.1A4.921,4.921,0,0,1,42.5,28.876c-4.26,0-6.877-3.436-6.878-7.877C35.623,16.588,38.086,13.3,42.376,13.3Zm4.808,7.725c0-4.016-1.979-5.171-4.351-5.17-2.677,0-4.2,1.948-4.2,5.081,0,3.194,1.674,5.384,4.443,5.383C45.208,26.32,47.185,25.041,47.184,21.026Z"/><path class="a" d="M61.422,13.3c4.321,0,6.633,3.223,6.634,7.207,0,0.4-.091,1.217-0.091,1.217l-11.224,0a5.156,5.156,0,0,0,5.294,5.139,7.082,7.082,0,0,0,4.5-1.8l1.278,2.1a9.011,9.011,0,0,1-5.931,2.253A7.846,7.846,0,0,1,53.7,21.359C53.7,16.461,57.042,13.3,61.422,13.3Zm3.592,6.265c-0.092-2.555-1.706-3.924-3.622-3.923a4.436,4.436,0,0,0-4.531,3.926Z"/><path class="a" d="M78.766,13.29a8.064,8.064,0,1,1-8.272,8.033A8.029,8.029,0,0,1,78.766,13.29Zm0,13.567a5.318,5.318,0,0,0,5.292-5.538,5.281,5.281,0,1,0-10.556,0A5.312,5.312,0,0,0,78.77,26.857Z"/><path class="a" d="M90.758,16.845a0.6,0.6,0,0,0-.671-0.669H88.841l-2-2.525h4.83c1.309,0,1.948.578,1.949,1.7v0.578a6.466,6.466,0,0,1-.061.883h0.061a6.263,6.263,0,0,1,5.777-3.53c3.65,0,5.294,1.975,5.3,5.9l0,6.662a0.6,0.6,0,0,0,.671.669h1.246v2.525h-2.921a1.668,1.668,0,0,1-1.946-1.946l0-7.24c0-2.16-.428-3.863-2.89-3.862a4.99,4.99,0,0,0-4.868,3.774,6.334,6.334,0,0,0-.272,2.068l0,7.21h-2.95Z"/><path class="a" d="M110.349,10.177h-1.977L106.6,7.562l11.23,0a6.387,6.387,0,0,1,6.724,6.721,6.46,6.46,0,0,1-6.72,6.816H113.4l0,7.94h-3.043Zm7,8.3a3.838,3.838,0,0,0,4.075-4.2,3.759,3.759,0,0,0-4.049-4.105h-3.984l0,8.305h3.955Z"/><path class="a" d="M129.521,32.874a3.081,3.081,0,0,0,2.706-2.221l0.7-1.673-5.265-12.2a0.891,0.891,0,0,0-.973-0.608h-0.366V13.649h1.734a1.942,1.942,0,0,1,2.19,1.551l3.5,8.669a16.374,16.374,0,0,1,.549,1.855h0.061a13.568,13.568,0,0,1,.516-1.856l3.191-8.671a1.989,1.989,0,0,1,2.25-1.553h3.118l-1.037,2.526h-0.709a0.894,0.894,0,0,0-.975.609l-6.079,15.029a5.255,5.255,0,0,1-4.958,3.622,5.1,5.1,0,0,1-3.619-1.52l1.216-2.13A3.2,3.2,0,0,0,129.521,32.874Z"/><path class="b" d="M15.291,17.6a14.989,14.989,0,0,0-1.51.9V21.12l1.512,1.214V18.075Z"/><path class="b" d="M114.95,17.569a16.184,16.184,0,0,0-1.556.912V21.1l1.558,1.206V18.044Z"/></svg>